<?xml version="1.0" encoding="iso-8859-1"?>
<!-- Generator: Adobe Illustrator 19.0.0, SVG Export Plug-In . SVG Version: 6.00 Build 0)  -->
<svg xmlns="http://www.w3.org/2000/svg" xmlns:xlink="http://www.w3.org/1999/xlink" version="1.1" id="Capa_1" x="0px" y="0px" viewBox="0 0 512 512" style="enable-background:new 0 0 512 512;" xml:space="preserve" width="50px" height="50px">
<g>
	<g>
		<g>
			<path d="M510.376,325.119l-4.898-16.672c-1.557-5.298-7.114-8.337-12.413-6.775l-22.238,6.533L337.767,79.817h40.193     c5.522,0,10-4.477,10-10v-5.798c0-34.374-27.965-62.34-62.34-62.34H185.768c-34.374,0-62.34,27.965-62.34,62.34v5.798     c0,5.523,4.478,10,10,10h40.803L41.173,308.205l-22.238-6.533c-5.295-1.558-10.856,1.477-12.413,6.775l-4.898,16.672     c-6.207,21.129,5.933,43.369,27.061,49.577c3.729,1.096,7.532,1.638,11.313,1.638c6.597,0,13.128-1.652,19.079-4.9     c9.364-5.111,16.177-13.563,19.184-23.798l4.898-16.672c0.747-2.544,0.453-5.282-0.817-7.61s-3.414-4.056-5.959-4.803     l-15.445-4.538L171.651,123.98l-29.593,163.258l-16.653-2.537c-2.621-0.4-5.296,0.259-7.432,1.831     c-2.137,1.571-3.561,3.927-3.96,6.549l-2.451,16.092c-1.53,10.046,0.943,20.087,6.965,28.273     c6.021,8.186,14.871,13.537,24.917,15.067c1.941,0.296,3.882,0.442,5.81,0.442c8.047,0,15.859-2.549,22.463-7.407     c8.186-6.022,13.537-14.871,15.066-24.917l2.451-16.092c0.832-5.46-2.92-10.56-8.38-11.392l-19.016-2.897l38.146-210.433h9.629     l4.986,201.921c0,0.003,0,0.005,0,0.008l0.717,29.004l2.597,105.167H201.15c-19.602,0-35.548,15.946-35.548,35.547v2.008h-37.615     c-17.75,0-32.191,14.441-32.191,32.192v4.655H60.573c-5.522,0-10,4.477-10,10s4.478,10,10,10h45.222h299.8h45.222     c5.522,0,10-4.477,10-10s-4.478-10-10-10h-35.221v-4.655c0-17.75-14.441-32.192-32.192-32.192h-37.005v-2.008     c0-19.601-15.946-35.547-35.548-35.547h-17.371l8.299-336.1h10.239l38.146,210.433l-19.016,2.897     c-5.46,0.832-9.212,5.932-8.38,11.392l2.451,16.092c1.529,10.046,6.881,18.895,15.066,24.917     c6.604,4.858,14.415,7.407,22.463,7.407c1.928,0,3.868-0.146,5.81-0.442c10.046-1.53,18.896-6.881,24.917-15.067     s8.495-18.227,6.965-28.273l-2.451-16.092c-0.399-2.622-1.823-4.978-3.96-6.549c-2.137-1.571-4.812-2.23-7.432-1.831     l-16.653,2.537l-29.593-163.258l110.713,190.033l-15.445,4.538c-2.545,0.748-4.688,2.475-5.959,4.803     c-1.271,2.328-1.564,5.065-0.817,7.61l4.898,16.671c3.007,10.235,9.819,18.687,19.184,23.798c5.952,3.249,12.482,4.9,19.079,4.9     c3.781,0,7.584-0.542,11.313-1.638h-0.001C504.443,368.489,516.584,346.25,510.376,325.119z M61.151,334.92l-2.08,7.078     c-1.501,5.109-4.901,9.328-9.576,11.88s-10.063,3.13-15.172,1.629c-0.001,0-0.001,0-0.001,0     c-10.547-3.099-16.607-14.201-13.509-24.749l2.079-7.078l17.77,5.221c0.007,0.004,0.013,0.009,0.02,0.013     c1.438,0.838,2.999,1.257,4.553,1.33L61.151,334.92z M167.956,311.413l-0.945,6.206c-0.726,4.765-3.264,8.962-7.146,11.818     c-3.882,2.856-8.646,4.027-13.409,3.304c-4.766-0.726-8.962-3.263-11.818-7.146c-2.856-3.883-4.029-8.645-3.304-13.41     l0.945-6.206L167.956,311.413z M310.85,435.918c8.573,0,15.548,6.975,15.548,15.547v2.008h-2.064c-5.522,0-10,4.477-10,10     c0,0.996,0.15,1.955,0.421,2.863c1.232,4.127,5.052,7.137,9.579,7.137h22.064h37.005c6.723,0,12.192,5.469,12.192,12.192v4.655     H115.794v-4.655c0-6.723,5.469-12.192,12.191-12.192H165.6h78.731c4.527,0,8.347-3.01,9.579-7.137     c0.271-0.907,0.421-1.867,0.421-2.863c0-5.523-4.478-10-10-10H185.6v-2.008c0-8.573,6.975-15.547,15.548-15.547h27.012h55.067     H310.85z M236.038,339.763l-0.961-38.875l-0.264-10.695l41.905-5.743l-1.232,49.908L236.038,339.763z M274.985,354.612     l-1.514,61.306h-35.555l-1.384-56.036L274.985,354.612z M234.316,270.074l-1.219-49.357l45.349-6.215l-1.227,49.692     L234.316,270.074z M232.601,200.599l-1.224-49.571l48.801-6.688l-1.232,49.907L232.601,200.599z M230.88,130.909l-1.261-51.092     h52.153l-1.093,44.266L230.88,130.909z M292.021,59.817h-72.653h-27.967c-0.001,0-0.002,0-0.003,0h-47.761     c2.116-21.381,20.204-38.138,42.133-38.138h139.852c21.928,0,40.017,16.756,42.133,38.138H292.021z M379.724,305.978l0.944,6.207     c0.726,4.765-0.447,9.527-3.304,13.41c-2.856,3.882-7.053,6.42-11.818,7.146c-4.766,0.724-9.527-0.448-13.409-3.304     c-3.883-2.856-6.421-7.053-7.146-11.818l-0.945-6.206L379.724,305.978z M477.677,355.507c-5.109,1.501-10.497,0.922-15.173-1.628     c-4.675-2.552-8.075-6.771-9.576-11.88l-2.08-7.078l15.916-4.676c1.555-0.073,3.115-0.493,4.553-1.33     c0.007-0.004,0.013-0.009,0.02-0.013l17.77-5.221l2.079,7.077C494.285,341.306,488.224,352.408,477.677,355.507z" fill="#3d3a2d"/>
			<path d="M280.509,454.242c-0.61,0.25-1.19,0.56-1.729,0.92c-0.551,0.36-1.061,0.78-1.521,1.24c-0.46,0.46-0.88,0.97-1.24,1.52     c-0.359,0.54-0.67,1.12-0.92,1.73c-0.25,0.6-0.439,1.23-0.569,1.87c-0.131,0.64-0.2,1.3-0.2,1.95s0.069,1.31,0.2,1.95     c0.063,0.308,0.14,0.613,0.23,0.914c0.097,0.325,0.209,0.645,0.339,0.957c0.25,0.61,0.561,1.19,0.92,1.73     c0.36,0.55,0.78,1.06,1.24,1.52c0.46,0.46,0.97,0.88,1.521,1.25c0.539,0.36,1.119,0.67,1.729,0.92c0.6,0.25,1.23,0.44,1.87,0.57     s1.3,0.19,1.95,0.19c0.649,0,1.31-0.06,1.96-0.19c0.63-0.13,1.26-0.32,1.87-0.57c0.6-0.25,1.18-0.56,1.72-0.92     c0.55-0.37,1.06-0.79,1.52-1.25c0.46-0.46,0.881-0.97,1.25-1.52c0.36-0.54,0.67-1.12,0.92-1.73     c0.13-0.312,0.242-0.632,0.339-0.957c0.09-0.301,0.168-0.606,0.231-0.914c0.13-0.64,0.19-1.3,0.19-1.95s-0.061-1.31-0.19-1.95     c-0.13-0.64-0.32-1.27-0.57-1.87c-0.25-0.61-0.56-1.19-0.92-1.73c-0.369-0.55-0.79-1.06-1.25-1.52     c-0.46-0.46-0.97-0.88-1.52-1.24c-0.54-0.36-1.12-0.67-1.72-0.92c-0.61-0.25-1.24-0.44-1.87-0.57c-1.29-0.26-2.62-0.26-3.91,0     C281.74,453.802,281.109,453.992,280.509,454.242z" fill="#3d3a2d"/>
		</g>
	</g>
</g>
<g>
</g>
<g>
</g>
<g>
</g>
<g>
</g>
<g>
</g>
<g>
</g>
<g>
</g>
<g>
</g>
<g>
</g>
<g>
</g>
<g>
</g>
<g>
</g>
<g>
</g>
<g>
</g>
<g>
</g>
</svg>
