<?xml version="1.0" encoding="iso-8859-1"?>
<!-- Generator: Adobe Illustrator 19.0.0, SVG Export Plug-In . SVG Version: 6.00 Build 0)  -->
<svg version="1.1" id="Capa_1" xmlns="http://www.w3.org/2000/svg" xmlns:xlink="http://www.w3.org/1999/xlink" x="0px" y="0px"
	 viewBox="0 0 512.042 512.042" style="enable-background:new 0 0 512.042 512.042;" xml:space="preserve">
<g transform="translate(0 -1)">
	<path style="fill:#B0D3F0;" d="M484.832,142.282H335.469c-9.739-0.029-17.627-7.916-17.655-17.655
		c0.07-9.722,7.934-17.585,17.655-17.655h17.655c9.751,0,17.655-7.904,17.655-17.655s-7.905-17.655-17.655-17.655h-52.966
		c-9.739-0.029-17.626-7.916-17.655-17.655c0.07-9.722,7.934-17.585,17.655-17.655h85.716
		C263.978-35.271,107.105,5.379,35.331,127.187c-12.53,21.214-21.898,44.142-27.807,68.061c-1.766,7.062-3.178,14.212-4.326,21.451
		c-0.794,4.59-1.324,9.269-1.854,13.859c-0.886,8.8-1.328,17.639-1.324,26.483c0,3.001,0.088,5.914,0.265,8.828
		c0.294,11.575,1.445,23.111,3.443,34.516c6.095,36.004,19.885,70.27,40.43,100.458c18.825,27.581,42.805,51.262,70.621,69.738
		c11.184,7.511,22.998,14.039,35.31,19.509c33.278,15.091,69.391,22.915,105.931,22.952c23.887,0.027,47.659-3.301,70.621-9.887
		c12.101-3.403,23.909-7.772,35.31-13.065c38.169-17.424,71.504-43.909,97.103-77.153c13.147-17.019,24.064-35.649,32.486-55.437
		c5.163-11.973,9.355-24.342,12.535-36.988C519.318,260.721,512.485,197.44,484.832,142.282z"/>
	<path style="fill:#2C2F38;" d="M52.986,204.075c-0.007,12.12-8.237,22.691-19.986,25.67c-11.749,2.979-24.021-2.394-29.802-13.046
		c1.148-7.239,2.56-14.389,4.326-21.451h43.873C52.467,198.067,53.005,201.06,52.986,204.075z"/>
	<path style="fill:#285680;" d="M504.076,320.511c-3.18,12.645-7.372,25.014-12.535,36.988
		c-10.004-10.297-20.873-19.718-32.486-28.16c-11.21-8.269-23.012-15.704-35.31-22.246c-14.211-7.609-28.963-14.159-44.138-19.597
		c-22.901-8.159-46.558-14.014-70.621-17.479c-11.646-1.736-23.372-2.885-35.134-3.443h-0.088
		c-7.327-0.53-14.654-0.706-22.157-0.706H0.286c-0.177-2.913-0.265-5.826-0.265-8.828c-0.004-8.844,0.438-17.683,1.324-26.483
		h250.262C355.243,230.558,447.05,265.956,504.076,320.511z"/>
	<path style="fill:#B0D3F0;" d="M26.504,230.558H1.345c0.53-4.59,1.059-9.269,1.854-13.859
		C7.826,225.254,16.777,230.577,26.504,230.558z"/>
	<g>
		<path style="fill:#67B9CC;" d="M44.159,301.178v99.663c-20.545-30.188-34.336-64.454-40.43-100.458
			c1.654,0.535,3.382,0.803,5.12,0.794H44.159z"/>
		<path style="fill:#67B9CC;" d="M256.021,301.178v211.863c-11.814,0.026-23.615-0.8-35.31-2.472V301.178H256.021z"/>
		<path style="fill:#67B9CC;" d="M459.055,329.338v83.597c-10.444,13.664-22.278,26.207-35.31,37.429V307.093
			C436.044,313.634,447.846,321.069,459.055,329.338z"/>
	</g>
	<g>
		<path style="fill:#41767F;" d="M273.764,266.574l-0.088,2.56v14.389c-0.029,9.739-7.916,17.626-17.655,17.655h-35.31
			c-9.739-0.029-17.627-7.916-17.655-17.655v-17.655h48.552C259.111,265.868,266.438,266.045,273.764,266.574z"/>
		<path style="fill:#41767F;" d="M379.607,287.496v4.855c-0.029,9.739-7.916,17.627-17.655,17.655h-35.31
			c-9.739-0.029-17.626-7.916-17.655-17.655v-22.334C333.049,273.482,356.706,279.337,379.607,287.496z"/>
	</g>
	<path style="fill:#67B9CC;" d="M361.952,310.006v180.083c-11.402,5.293-23.21,9.662-35.31,13.065V310.006H361.952z"/>
	<path style="fill:#41767F;" d="M167.745,265.868v17.655c-0.029,9.739-7.916,17.626-17.655,17.655h-35.31
		c-9.739-0.029-17.627-7.916-17.655-17.655v-17.655H167.745z"/>
	<path style="fill:#67B9CC;" d="M150.09,301.178v188.91c-12.312-5.47-24.126-11.998-35.31-19.509V301.178H150.09z"/>
	<path style="fill:#41767F;" d="M61.814,265.868v17.655c-0.029,9.739-7.916,17.626-17.655,17.655H8.849
		c-1.738,0.009-3.466-0.259-5.12-0.794c-1.998-11.405-3.149-22.941-3.443-34.516H61.814z"/>
	<path style="fill:#B0D3F0;" d="M132.435,230.558H26.504c7.027,0.009,13.768-2.778,18.737-7.746
		c4.969-4.969,7.756-11.71,7.746-18.736c0.019-3.015-0.52-6.008-1.589-8.828h56.143c-1.069,2.819-1.608,5.812-1.589,8.828
		c-0.009,7.027,2.778,13.768,7.746,18.736C118.667,227.78,125.408,230.567,132.435,230.558z"/>
	<g>
		<path style="fill:#FF5364;" d="M176.573,204.075h-17.655c-4.875,0-8.828-3.952-8.828-8.828s3.952-8.828,8.828-8.828h17.655
			c4.875,0,8.828,3.952,8.828,8.828S181.448,204.075,176.573,204.075z"/>
		<path style="fill:#FF5364;" d="M167.745,151.11v44.138H7.524c5.909-23.919,15.277-46.847,27.807-68.061v6.268
			c0.029,9.739,7.916,17.627,17.655,17.655h8.828c9.739-0.029,17.627-7.916,17.655-17.655v-8.828
			c0.028-9.739,7.916-17.627,17.655-17.655h26.483C147.98,106.98,167.736,126.736,167.745,151.11z"/>
	</g>
	<path style="fill:#2C2F38;" d="M158.918,204.075c0,14.626-11.857,26.483-26.483,26.483c-14.626,0-26.483-11.857-26.483-26.483
		c-0.019-3.015,0.52-6.008,1.589-8.828h49.788C158.398,198.067,158.936,201.06,158.918,204.075z"/>
</g>
<g>
</g>
<g>
</g>
<g>
</g>
<g>
</g>
<g>
</g>
<g>
</g>
<g>
</g>
<g>
</g>
<g>
</g>
<g>
</g>
<g>
</g>
<g>
</g>
<g>
</g>
<g>
</g>
<g>
</g>
</svg>
